<?xml version="1.0" encoding="utf-8" ?>	<!-- Generator: Assembly 1.8 - http://assemblyapp.co -->	<svg version="1.1" xmlns="http://www.w3.org/2000/svg" xmlns:xlink="http://www.w3.org/1999/xlink" width="2048.00" height="2048.00" viewBox="0 0 2048.0 2048.0">		<g id="document" transform="matrix(1,0,0,1,1024.0,1024.0)">			<path d="M213.17,-326.251 L-3.14079,-585.527 L-213.977,-320.335 L213.17,-326.251 Z M509.121,-641.066 L33.7171,-634.481 L275.491,-343.82 L509.121,-641.066 Z M299.767,-268.983 L60.3029,639.753 L805.547,-275.988 L299.767,-268.983 Z M13.0234,581.944 L237.212,-268.117 L-236.402,-261.556 L13.0234,581.944 Z M-339.083,-318.602 L-805.547,-312.141 L-577.188,-602.633 L-339.083,-318.602 Z M-804.737,-253.684 L-34.418,641.066 L-298.954,-260.69 L-804.737,-253.684 Z M804.741,-334.445 L568.418,-618.501 L338.27,-327.984 L804.741,-334.445 Z M-43.1326,-633.417 L-518.533,-626.832 L-276.761,-336.171 L-43.1326,-633.417 Z " fill="#79bd9a" fill-opacity="1.00" />		</g>	</svg>